<svg width="239" height="41" viewBox="0 0 239 41" fill="none" xmlns="http://www.w3.org/2000/svg">
<path d="M9.98156 34H0.621562L13.3416 0.399998H22.9416L35.6616 34H26.3016L24.1416 28H12.1416L9.98156 34ZM14.3016 21.76H21.9816L18.1416 10.48L14.3016 21.76ZM40.4597 34.48C39.0837 34.48 37.4837 34.32 35.6597 34V27.76H37.5797C38.7957 27.76 39.4357 27.12 39.4997 25.84L40.4597 8.56H63.4997V34H55.0997V15.04H48.3797L47.6597 27.28C47.5317 29.456 46.8117 31.2 45.4997 32.512C44.1877 33.824 42.5077 34.48 40.4597 34.48ZM84.8428 8.56H93.7228V34H85.3228V20.08L77.1628 34H68.2828V8.56H76.6828V22.48L84.8428 8.56ZM97.5572 20.56V13.84H117.237V20.56H97.5572ZM124.891 0.399998H150.091V27.28H153.691V40.24H145.531L145.051 34H126.331L125.851 40.24H117.691V27.28H120.811C121.739 26.224 122.427 25.04 122.875 23.728C123.355 22.384 123.627 21.168 123.691 20.08L124.891 0.399998ZM141.451 27.28V7.12H132.571L131.851 19.12C131.755 21.072 131.275 23.04 130.411 25.024C130.059 25.856 129.659 26.608 129.211 27.28H141.451ZM166.904 14.08C165.624 14.08 164.984 14.72 164.984 16V18.64H173.144V16C173.144 14.72 172.504 14.08 171.224 14.08H166.904ZM180.584 33.52C174.408 34.16 168.808 34.48 163.784 34.48C161.608 34.48 159.864 33.824 158.552 32.512C157.24 31.2 156.584 29.456 156.584 27.28V15.76C156.584 13.36 157.256 11.488 158.6 10.144C159.976 8.768 161.864 8.08 164.264 8.08H173.864C176.264 8.08 178.136 8.768 179.48 10.144C180.856 11.488 181.544 13.36 181.544 15.76V24.64H164.984V26.56C164.984 27.04 165.144 27.44 165.464 27.76C165.784 28.08 166.184 28.24 166.664 28.24C169.832 28.24 174.472 28 180.584 27.52V33.52ZM202.885 17.92V8.56H211.285V34H202.885V24.4H194.245V34H185.845V8.56H194.245V17.92H202.885ZM230.48 15.04V34H222.08V15.04H214.16V8.56H238.4V15.04H230.48Z" fill="#950032"/>
</svg>
