<svg width="181" height="36" viewBox="0 0 181 36" fill="none" xmlns="http://www.w3.org/2000/svg">
<path d="M9.69854 35H0.338542L13.0585 1.4H22.6585L35.3785 35H26.0185L23.8585 29H11.8585L9.69854 35ZM14.0185 22.76H21.6985L17.8585 11.48L14.0185 22.76ZM50.2567 35C48.1127 35.32 46.0647 35.48 44.1127 35.48C42.1927 35.48 40.5767 34.824 39.2647 33.512C37.9527 32.2 37.2967 30.456 37.2967 28.28V1.4H45.6967V27.08C45.6967 27.56 45.8567 27.96 46.1767 28.28C46.4967 28.6 46.8967 28.76 47.3767 28.76H50.2567V35ZM64.1692 10.52V35H55.7692V17H52.1692V10.52H64.1692ZM55.7692 0.919998H64.1692V7.64H55.7692V0.919998ZM88.1842 1.4C91.8002 1.4 94.5362 2.344 96.3922 4.232C98.2802 6.088 99.2242 8.824 99.2242 12.44V23.96C99.2242 27.576 98.2802 30.328 96.3922 32.216C94.5362 34.072 91.8002 35 88.1842 35H69.4642V1.4H88.1842ZM90.5842 12.44C90.5842 9.56 89.1442 8.12 86.2642 8.12H78.1042V28.28H86.2642C89.1442 28.28 90.5842 26.84 90.5842 23.96V12.44ZM113.371 15.08C112.091 15.08 111.451 15.72 111.451 17V19.64H119.611V17C119.611 15.72 118.971 15.08 117.691 15.08H113.371ZM127.051 34.52C120.875 35.16 115.275 35.48 110.251 35.48C108.075 35.48 106.331 34.824 105.019 33.512C103.707 32.2 103.051 30.456 103.051 28.28V16.76C103.051 14.36 103.723 12.488 105.067 11.144C106.443 9.768 108.331 9.08 110.731 9.08H120.331C122.731 9.08 124.603 9.768 125.947 11.144C127.323 12.488 128.011 14.36 128.011 16.76V25.64H111.451V27.56C111.451 28.04 111.611 28.44 111.931 28.76C112.251 29.08 112.651 29.24 113.131 29.24C116.299 29.24 120.939 29 127.051 28.52V34.52ZM146.472 16.04C144.776 16.04 142.856 16.36 140.712 17V35H132.312V9.56H139.752L140.232 11.96C141.736 10.968 143.272 10.248 144.84 9.8C146.44 9.32 147.784 9.08 148.872 9.08H151.032C153.208 9.08 154.952 9.736 156.264 11.048C157.576 12.36 158.232 14.104 158.232 16.28V35H149.832V17.72C149.832 17.24 149.672 16.84 149.352 16.52C149.032 16.2 148.632 16.04 148.152 16.04H146.472ZM180.307 35C177.203 35.32 174.163 35.48 171.187 35.48C169.011 35.48 167.267 34.824 165.955 33.512C164.643 32.2 163.987 30.456 163.987 28.28V16.04H161.107V9.56H163.987L164.947 3.8H172.387V9.56H178.387V16.04H172.387V27.08C172.387 27.56 172.547 27.96 172.867 28.28C173.187 28.6 173.587 28.76 174.067 28.76H180.307V35Z" fill="#950032"/>
</svg>
